# xmcd
#
# Track frame offsets:
#	150
#	11273
#	20476
#	34189
#	41501
#	55533
#	72516
#	83218
#	92891
#	104562
#
# Disc length: 1539 seconds
#
# Revision: 3
# Processed by: cddbd v1.5.1PL0 Copyright (c) Steve Scherf et al.
# Submitted via: audiograbber 1.83.01
#
DISCID=7906010a
DTITLE=Teresa Tarouca - Succecos Populares
DYEAR=1900
DGENRE=Folklore
TTITLE0=Cai chuva do ceu cinzento
TTITLE1=Meu bergatim
TTITLE2=Passeio a mouraria
TTITLE3=Zé Sapateiro
TTITLE4=Penas tem quem tem amnores
TTITLE5=Nao sou Fadista de raca
TTITLE6=Cancao Verde
TTITLE7=As minhas asas
TTITLE8=Ora bate,bate
TTITLE9=Saudade silencio e sombra
EXTD=
EXTT0=
EXTT1=
EXTT2=
EXTT3=
EXTT4=
EXTT5=
EXTT6=
EXTT7=
EXTT8=
EXTT9=
PLAYORDER=
